<svg width="27" height="27" viewBox="0 0 27 27" fill="none" xmlns="http://www.w3.org/2000/svg">
<g clip-path="url(#clip0_19_538)">
<path d="M17.8374 13.6379L26.9091 19.3729V7.6607L17.8374 13.6379Z" fill="#E8DED1"/>
<path d="M0 7.6607V19.3729L9.07173 13.6379L0 7.6607Z" fill="#E8DED1"/>
<path d="M25.2274 4.25005H1.6819C0.842673 4.25005 0.176673 4.87568 0.0505371 5.68127L13.4546 14.5125L26.8587 5.68127C26.7326 4.87568 26.0666 4.25005 25.2274 4.25005Z" fill="#E8DED1"/>
<path d="M16.2967 14.6539L13.9169 16.2213C13.7757 16.3138 13.6159 16.3592 13.4544 16.3592C13.293 16.3592 13.1332 16.3138 12.9919 16.2213L10.6122 14.6522L0.0537109 21.3307C0.183211 22.1296 0.845847 22.7501 1.68171 22.7501H25.2272C26.063 22.7501 26.7257 22.1296 26.8552 21.3307L16.2967 14.6539Z" fill="#E8DED1"/>
</g>
<defs>
<clipPath id="clip0_19_538">
<rect width="26.9091" height="26.9091" fill="white" transform="translate(0 0.0454559)"/>
</clipPath>
</defs>
</svg>
