<svg width="22" height="18" viewBox="0 0 22 18" fill="none" xmlns="http://www.w3.org/2000/svg">
<path fill-rule="evenodd" clip-rule="evenodd" d="M8.4388 1.98404C7.5971 1.53583 6.6261 1.3931 5.69102 1.58011C4.75594 1.76713 3.91454 2.27235 3.30996 3.0098C2.70539 3.74726 2.375 4.67141 2.375 5.62501C2.375 8.46731 4.49147 11.1802 6.81422 13.2707C7.95292 14.2955 9.09503 15.1296 9.95405 15.708C10.3828 15.9967 10.7393 16.2205 10.9871 16.3713C10.9914 16.3739 10.9957 16.3766 11 16.3792C11.0043 16.3766 11.0086 16.3739 11.0129 16.3713C11.2607 16.2205 11.6172 15.9967 12.046 15.708C12.905 15.1296 14.0471 14.2955 15.1858 13.2707C17.5085 11.1802 19.625 8.46731 19.625 5.62501C19.625 4.67141 19.2946 3.74726 18.69 3.0098C18.0855 2.27235 17.2441 1.76713 16.309 1.58011C15.3739 1.3931 14.4029 1.53583 13.5612 1.98404C12.7195 2.43224 12.0591 3.15822 11.6923 4.03847L11 3.75001L10.3077 4.03847C9.94092 3.15822 9.28051 2.43224 8.4388 1.98404ZM11 2.25C10.5086 1.59484 9.8766 1.05025 9.14382 0.660047C7.99604 0.0488604 6.67196 -0.14578 5.39685 0.109242C4.12174 0.364265 2.97437 1.0532 2.14995 2.05882C1.32553 3.06445 0.875 4.32465 0.875 5.62501C0.875 9.15771 3.44603 12.2573 5.81078 14.3856C7.01583 15.4702 8.21747 16.347 9.11626 16.9522C9.56639 17.2553 9.94237 17.4915 10.2073 17.6527C10.3398 17.7333 10.4446 17.7952 10.5171 17.8375C10.5534 17.8587 10.5816 17.8749 10.6012 17.8861L10.6241 17.8991L10.6305 17.9027L10.6325 17.9038L10.6331 17.9041C10.6333 17.9043 10.6335 17.9044 11 17.25L10.6335 17.9044C10.8612 18.0319 11.1388 18.0319 11.3665 17.9044L11 17.25C11.3665 17.9044 11.3667 17.9043 11.3669 17.9041L11.3675 17.9038L11.3695 17.9027L11.3759 17.8991L11.3988 17.8861C11.4184 17.8749 11.4466 17.8587 11.4829 17.8375C11.5554 17.7952 11.6602 17.7333 11.7927 17.6527C12.0576 17.4915 12.4336 17.2553 12.8837 16.9522C13.7825 16.347 14.9842 15.4702 16.1892 14.3856C18.554 12.2573 21.125 9.15771 21.125 5.62501C21.125 4.32465 20.6745 3.06445 19.85 2.05882C19.0256 1.0532 17.8783 0.364265 16.6032 0.109242C15.328 -0.14578 14.004 0.0488604 12.8562 0.660047C12.1234 1.05025 11.4914 1.59484 11 2.25Z" fill="#725E3A"/>
</svg>
