<svg width="40" height="40" viewBox="0 0 40 40" fill="none" xmlns="http://www.w3.org/2000/svg">
<g clip-path="url(#clip0_19_239)">
<path fill-rule="evenodd" clip-rule="evenodd" d="M20 3.33333C14.4772 3.33333 10 7.81049 10 13.3333C10 18.8562 14.4772 23.3333 20 23.3333C25.5229 23.3333 30 18.8562 30 13.3333C30 7.81049 25.5229 3.33333 20 3.33333ZM6.66669 13.3333C6.66669 5.96954 12.6362 0 20 0C27.3638 0 33.3334 5.96954 33.3334 13.3333C33.3334 20.6971 27.3638 26.6667 20 26.6667C12.6362 26.6667 6.66669 20.6971 6.66669 13.3333Z" fill="white"/>
<path fill-rule="evenodd" clip-rule="evenodd" d="M26.0974 21.4812C27.0099 21.3601 27.8478 22.0017 27.9688 22.9141L29.9855 38.1141C30.0697 38.7485 29.7832 39.3751 29.2483 39.7264C28.7134 40.0777 28.0246 40.0918 27.4758 39.7625L20 35.277L12.5241 39.7625C11.9754 40.0918 11.2865 40.0777 10.7516 39.7263C10.2167 39.375 9.93022 38.7483 10.0145 38.1139L12.0312 22.9306C12.1523 22.0181 12.9903 21.3767 13.9028 21.4979C14.8152 21.6191 15.4567 22.457 15.3355 23.3695L13.7741 35.1253L19.1425 31.9042C19.6703 31.5875 20.3297 31.5875 20.8575 31.9042L26.2264 35.1256L24.6645 23.3526C24.5434 22.4401 25.185 21.6022 26.0974 21.4812Z" fill="white"/>
</g>
<defs>
<clipPath id="clip0_19_239">
<rect width="40" height="40" fill="white"/>
</clipPath>
</defs>
</svg>
