<svg width="40" height="40" viewBox="0 0 40 40" fill="none" xmlns="http://www.w3.org/2000/svg">
<path fill-rule="evenodd" clip-rule="evenodd" d="M0 4.99999C0 4.07952 0.746192 3.33333 1.66667 3.33333H26.6667C27.5871 3.33333 28.3333 4.07952 28.3333 4.99999V26.6667C28.3333 27.5871 27.5871 28.3333 26.6667 28.3333H1.66667C0.746192 28.3333 0 27.5871 0 26.6667V4.99999ZM3.33333 6.66666V25H25V6.66666H3.33333Z" fill="white"/>
<path fill-rule="evenodd" clip-rule="evenodd" d="M25 13.3333C25 12.4128 25.7462 11.6667 26.6667 11.6667H33.3333C33.7754 11.6667 34.1993 11.8423 34.5118 12.1548L39.5118 17.1548C39.8244 17.4674 40 17.8913 40 18.3333V26.6667C40 27.5871 39.2538 28.3333 38.3333 28.3333H26.6667C25.7462 28.3333 25 27.5871 25 26.6667V13.3333ZM28.3333 15V25H36.6667V19.0237L32.643 15H28.3333Z" fill="white"/>
<path fill-rule="evenodd" clip-rule="evenodd" d="M9.16671 28.3333C7.786 28.3333 6.66671 29.4526 6.66671 30.8333C6.66671 32.214 7.786 33.3333 9.16671 33.3333C10.5474 33.3333 11.6667 32.214 11.6667 30.8333C11.6667 29.4526 10.5474 28.3333 9.16671 28.3333ZM3.33337 30.8333C3.33337 27.6117 5.94505 25 9.16671 25C12.3884 25 15 27.6117 15 30.8333C15 34.055 12.3884 36.6667 9.16671 36.6667C5.94505 36.6667 3.33337 34.055 3.33337 30.8333Z" fill="white"/>
<path fill-rule="evenodd" clip-rule="evenodd" d="M30.8333 28.3333C29.4526 28.3333 28.3333 29.4526 28.3333 30.8333C28.3333 32.214 29.4526 33.3333 30.8333 33.3333C32.214 33.3333 33.3333 32.214 33.3333 30.8333C33.3333 29.4526 32.214 28.3333 30.8333 28.3333ZM25 30.8333C25 27.6117 27.6117 25 30.8333 25C34.055 25 36.6667 27.6117 36.6667 30.8333C36.6667 34.055 34.055 36.6667 30.8333 36.6667C27.6117 36.6667 25 34.055 25 30.8333Z" fill="white"/>
</svg>
