<svg width="21" height="21" viewBox="0 0 21 21" fill="none" xmlns="http://www.w3.org/2000/svg">
<g clip-path="url(#clip0_19_297)">
<path fill-rule="evenodd" clip-rule="evenodd" d="M6.07642 18.1629C6.07642 17.2425 6.82261 16.4963 7.74308 16.4963C8.66356 16.4963 9.40975 17.2425 9.40975 18.1629C9.40975 19.0834 8.66356 19.8296 7.74308 19.8296C6.82261 19.8296 6.07642 19.0834 6.07642 18.1629Z" fill="#685945"/>
<path fill-rule="evenodd" clip-rule="evenodd" d="M15.2432 18.1629C15.2432 17.2425 15.9894 16.4963 16.9098 16.4963C17.8303 16.4963 18.5765 17.2425 18.5765 18.1629C18.5765 19.0834 17.8303 19.8296 16.9098 19.8296C15.9894 19.8296 15.2432 19.0834 15.2432 18.1629Z" fill="#685945"/>
<path fill-rule="evenodd" clip-rule="evenodd" d="M0.243164 1.4963C0.243164 1.03606 0.61626 0.662964 1.0765 0.662964H4.40983C4.80702 0.662964 5.14901 0.943285 5.22696 1.33275L5.92686 4.82963H19.4098C19.6582 4.82963 19.8936 4.9404 20.0519 5.13176C20.2102 5.32312 20.2749 5.57511 20.2284 5.81907L18.8939 12.817C18.7796 13.3925 18.4665 13.9094 18.0094 14.2773C17.5547 14.6434 16.9862 14.8388 16.4026 14.8296H8.31703C7.73348 14.8388 7.165 14.6434 6.71023 14.2773C6.25337 13.9096 5.94036 13.3929 5.82594 12.8177C5.82589 12.8174 5.82598 12.8179 5.82594 12.8177L4.43382 5.8623C4.42817 5.83929 4.42348 5.81591 4.41979 5.79219L3.72676 2.32963H1.0765C0.61626 2.32963 0.243164 1.95653 0.243164 1.4963ZM6.26044 6.4963L7.46053 12.4923C7.49863 12.6841 7.60299 12.8564 7.75534 12.9791C7.90769 13.1017 8.09832 13.1669 8.29386 13.1631L8.30983 13.163H16.4098L16.4258 13.1631C16.6213 13.1669 16.812 13.1017 16.9643 12.9791C17.116 12.857 17.2201 12.6857 17.2586 12.495L18.4026 6.4963H6.26044Z" fill="#685945"/>
</g>
<defs>
<clipPath id="clip0_19_297">
<rect width="20" height="20" fill="white" transform="translate(0.243164 0.662964)"/>
</clipPath>
</defs>
</svg>
