<svg width="40" height="40" viewBox="0 0 40 40" fill="none" xmlns="http://www.w3.org/2000/svg">
<path fill-rule="evenodd" clip-rule="evenodd" d="M20.1087 3.74997C22.2508 3.7334 24.375 4.14052 26.3592 4.94792C28.3464 5.75655 30.1538 6.95068 31.6771 8.46142C33.2004 9.97215 34.4095 11.7696 35.2346 13.75C36.0597 15.7304 36.4844 17.8546 36.4844 20C36.4844 20 36.4844 20 36.4844 20V28.75C36.4844 29.7446 36.0893 30.6984 35.386 31.4017C34.6828 32.1049 33.7289 32.5 32.7344 32.5H30.2344C29.2398 32.5 28.286 32.1049 27.5827 31.4017C26.8795 30.6984 26.4844 29.7446 26.4844 28.75V22.5C26.4844 21.5054 26.8795 20.5516 27.5827 19.8484C28.286 19.1451 29.2398 18.75 30.2344 18.75H33.9275C33.8009 17.3633 33.4643 16.0013 32.9269 14.7115C32.2287 13.0357 31.2056 11.5148 29.9167 10.2365C28.6277 8.95819 27.0984 7.94777 25.4169 7.26354C23.7354 6.57932 21.9351 6.23483 20.1198 6.24996L20.1003 6.24997C18.2862 6.23674 16.4874 6.58263 14.8076 7.26771C13.1278 7.95279 11.6001 8.96351 10.3127 10.2416C9.02522 11.5198 8.00343 13.04 7.30616 14.7148C6.76957 16.0037 6.43334 17.3645 6.3069 18.75H10C10.9946 18.75 11.9484 19.1451 12.6516 19.8484C13.3549 20.5516 13.75 21.5054 13.75 22.5V28.75C13.75 29.7446 13.3549 30.6984 12.6516 31.4017C11.9484 32.1049 10.9946 32.5 10 32.5H7.5C6.50544 32.5 5.55161 32.1049 4.84835 31.4017C4.14509 30.6984 3.75 29.7446 3.75 28.75V20C3.74994 17.856 4.17416 15.7332 4.99819 13.7539C5.82223 11.7746 7.02981 9.97796 8.55133 8.46745C10.0729 6.95694 11.8783 5.76245 13.8635 4.95282C15.8457 4.14441 17.9681 3.73564 20.1087 3.74997ZM6.25 21.25V28.75C6.25 29.0815 6.3817 29.3995 6.61612 29.6339C6.85054 29.8683 7.16848 30 7.5 30H10C10.3315 30 10.6495 29.8683 10.8839 29.6339C11.1183 29.3995 11.25 29.0815 11.25 28.75V22.5C11.25 22.1685 11.1183 21.8505 10.8839 21.6161C10.6495 21.3817 10.3315 21.25 10 21.25H6.25ZM33.9844 21.25H30.2344C29.9029 21.25 29.5849 21.3817 29.3505 21.6161C29.1161 21.8505 28.9844 22.1685 28.9844 22.5V28.75C28.9844 29.0815 29.1161 29.3995 29.3505 29.6339C29.5849 29.8683 29.9029 30 30.2344 30H32.7344C33.0659 30 33.3838 29.8683 33.6183 29.6339C33.8527 29.3995 33.9844 29.0815 33.9844 28.75V21.25Z" fill="white"/>
<path fill-rule="evenodd" clip-rule="evenodd" d="M35.2344 27.5C35.9247 27.5 36.4844 28.0596 36.4844 28.75V32.5C36.4844 34.1576 35.8259 35.7473 34.6538 36.9194C33.4817 38.0915 31.892 38.75 30.2344 38.75H21.25C20.5596 38.75 20 38.1904 20 37.5C20 36.8096 20.5596 36.25 21.25 36.25H30.2344C31.2289 36.25 32.1828 35.8549 32.886 35.1516C33.5893 34.4484 33.9844 33.4946 33.9844 32.5V28.75C33.9844 28.0596 34.544 27.5 35.2344 27.5Z" fill="white"/>
</svg>
