<svg width="40" height="40" viewBox="0 0 40 40" fill="none" xmlns="http://www.w3.org/2000/svg">
<path fill-rule="evenodd" clip-rule="evenodd" d="M6.66669 6.66666C6.22466 6.66666 5.80074 6.84226 5.48818 7.15482C5.17562 7.46738 5.00002 7.8913 5.00002 8.33333V18.3333C5.00002 22.3116 6.58037 26.1269 9.39342 28.9399C10.7863 30.3328 12.4399 31.4377 14.2598 32.1915C16.0797 32.9453 18.0302 33.3333 20 33.3333C23.9783 33.3333 27.7936 31.753 30.6066 28.9399C33.4197 26.1269 35 22.3116 35 18.3333V8.33333C35 7.8913 34.8244 7.46738 34.5119 7.15482C34.1993 6.84226 33.7754 6.66666 33.3334 6.66666H6.66669ZM6.66669 3.33333H33.3334C34.6594 3.33333 35.9312 3.86011 36.8689 4.79779C37.8066 5.73548 38.3334 7.00725 38.3334 8.33333V18.3333C38.3334 23.1956 36.4018 27.8588 32.9636 31.297C29.5255 34.7351 24.8623 36.6667 20 36.6667C17.5925 36.6667 15.2085 36.1925 12.9842 35.2711C10.7599 34.3498 8.7388 32.9994 7.0364 31.297C3.59823 27.8588 1.66669 23.1956 1.66669 18.3333V8.33333C1.66669 7.00725 2.19347 5.73548 3.13115 4.79779C4.06884 3.86011 5.34061 3.33333 6.66669 3.33333Z" fill="white"/>
<path fill-rule="evenodd" clip-rule="evenodd" d="M12.1548 15.4882C12.8057 14.8373 13.861 14.8373 14.5119 15.4882L20 20.9763L25.4882 15.4882C26.139 14.8373 27.1943 14.8373 27.8452 15.4882C28.4961 16.139 28.4961 17.1943 27.8452 17.8452L21.1785 24.5118C20.5277 25.1627 19.4724 25.1627 18.8215 24.5118L12.1548 17.8452C11.504 17.1943 11.504 16.139 12.1548 15.4882Z" fill="white"/>
</svg>
